<svg id="Livello_1" data-name="Livello 1" xmlns="http://www.w3.org/2000/svg" viewBox="0 0 100 35"><defs><style>.cls-1{fill:#fff;}</style></defs><path class="cls-1" d="M17.5,33a15.5,15.5,0,0,1,0-31h65a15.5,15.5,0,0,1,0,31Z"/><path d="M82.5,4a13.5,13.5,0,0,1,0,27h-65a13.5,13.5,0,0,1,0-27h65m0-4h-65A17.51,17.51,0,0,0,0,17.5H0A17.5,17.5,0,0,0,17.5,35h65A17.49,17.49,0,0,0,100,17.5h0A17.5,17.5,0,0,0,82.5,0Z"/><path d="M31.93,10.25H36.3l1.63,6.82c.43,1.65.72,3.26,1.15,4.94h.1c.43-1.68.74-3.29,1.15-4.94l1.58-6.82h4.23l-4.61,15.6h-5Z"/><path d="M47.38,10.25h4.13v15.6H47.38Z"/><path d="M55,10.25h5.71c3.41,0,6.34,1.25,6.34,5.18s-3,5.48-6.24,5.48H59.1v4.94H55Zm5.61,7.39c1.64,0,2.41-.81,2.41-2.21s-.92-1.92-2.5-1.92H59.1v4.13Z"/></svg>