<svg id="Livello_1" data-name="Livello 1" xmlns="http://www.w3.org/2000/svg" viewBox="0 0 106 35"><defs><style>.cls-1{fill:#fff;}.cls-2{fill:#00cd00;}</style></defs><path class="cls-1" d="M17.5,33a15.5,15.5,0,0,1,0-31h71a15.5,15.5,0,0,1,0,31Z"/><path class="cls-2" d="M88.5,4a13.5,13.5,0,0,1,0,27h-71a13.5,13.5,0,0,1,0-27h71m0-4h-71A17.51,17.51,0,0,0,0,17.5H0A17.5,17.5,0,0,0,17.5,35h71A17.49,17.49,0,0,0,106,17.5h0A17.5,17.5,0,0,0,88.5,0Z"/><path class="cls-2" d="M12.16,10.25h4.13V22.4H22.2v3.45h-10Z"/><path class="cls-2" d="M23.25,18c0-5.14,2.93-8,7.25-8s7.25,2.91,7.25,8-2.93,8.16-7.25,8.16S23.25,23.12,23.25,18Zm10.28,0c0-2.83-1.16-4.47-3-4.47s-3,1.64-3,4.47,1.15,4.61,3,4.61S33.53,20.81,33.53,18Z"/><path class="cls-2" d="M39.86,18.17c0-5.23,3.6-8.21,7.78-8.21A7,7,0,0,1,52.72,12l-2.16,2.64a3.85,3.85,0,0,0-2.78-1.16c-2.11,0-3.7,1.68-3.7,4.52s1.3,4.56,4.08,4.56a2.32,2.32,0,0,0,1.2-.29V20.14h-2.3V16.78H53v7.44a7.85,7.85,0,0,1-5.28,1.92C43.36,26.14,39.86,23.5,39.86,18.17Z"/><path class="cls-2" d="M55.36,18.17c0-5.23,3.6-8.21,7.78-8.21A7,7,0,0,1,68.23,12l-2.16,2.64a3.89,3.89,0,0,0-2.79-1.16c-2.11,0-3.69,1.68-3.69,4.52s1.29,4.56,4.08,4.56a2.37,2.37,0,0,0,1.2-.29V20.14H62.56V16.78h6v7.44a7.89,7.89,0,0,1-5.28,1.92C58.87,26.14,55.36,23.5,55.36,18.17Z"/><path class="cls-2" d="M71.54,10.25H81.62v3.46h-6v2.44h5.09v3.46H75.67V22.4h6.19v3.45H71.54Z"/><path class="cls-2" d="M84.88,10.25h4.61c4.75,0,8,2.21,8,7.73s-3.27,7.87-7.78,7.87H84.88Zm4.37,12.29c2.26,0,4-.91,4-4.56s-1.77-4.42-4-4.42H89v9Z"/></svg>