<svg id="Livello_1" data-name="Livello 1" xmlns="http://www.w3.org/2000/svg" viewBox="0 0 512 512"><defs><style>.cls-1{fill:#fff;}</style></defs><rect class="cls-1" x="18" y="18" width="476" height="476" rx="57.85"/><path d="M436.15,36A39.9,39.9,0,0,1,476,75.85v360.3A39.9,39.9,0,0,1,436.15,476H75.85A39.9,39.9,0,0,1,36,436.15V75.85A39.9,39.9,0,0,1,75.85,36h360.3m0-36H75.85A75.85,75.85,0,0,0,0,75.85v360.3A75.85,75.85,0,0,0,75.85,512h360.3A75.85,75.85,0,0,0,512,436.15V75.85A75.85,75.85,0,0,0,436.15,0Z"/><rect x="136" y="244.46" width="241" height="23.07" rx="11.54" transform="translate(512.5 -0.5) rotate(90)"/><rect x="136" y="244.46" width="241" height="23.07" rx="11.54" transform="translate(513 512) rotate(-180)"/></svg>