<?xml version="1.0" encoding="utf-8"?>
<!-- Generator: Adobe Illustrator 25.2.1, SVG Export Plug-In . SVG Version: 6.00 Build 0)  -->
<svg version="1.1" id="Livello_1" xmlns="http://www.w3.org/2000/svg" xmlns:xlink="http://www.w3.org/1999/xlink" x="0px" y="0px"
	 viewBox="0 0 128 128.3" style="enable-background:new 0 0 128 128.3;" xml:space="preserve">
<style type="text/css">
	.st0{fill:#FFFFFF;}
	.st1{font-family:'HelveticaNeue-Bold';}
	.st2{font-size:121px;}
</style>
<circle class="st0" cx="64" cy="64.3" r="57"/>
<path d="M64,14.3c27.6,0,50,22.4,50,50s-22.4,50-50,50s-50-22.4-50-50C14,36.7,36.4,14.3,64,14.3 M64,0.3L64,0.3
	C28.7,0.3,0,29,0,64.3l0,0c0,35.3,28.7,64,64,64l0,0c35.3,0,64-28.7,64-64l0,0C128,29,99.3,0.3,64,0.3z"/>
<text transform="matrix(1 0 0 1 40 103.7)" class="st1 st2">t</text>
</svg>
