<svg id="Livello_1" data-name="Livello 1" xmlns="http://www.w3.org/2000/svg" viewBox="0 0 100 35"><defs><style>.cls-1{fill:#fff;}</style></defs><path class="cls-1" d="M17.5,33a15.5,15.5,0,0,1,0-31h65a15.5,15.5,0,0,1,0,31Z"/><path d="M82.5,4a13.5,13.5,0,0,1,0,27h-65a13.5,13.5,0,0,1,0-27h65m0-4h-65A17.51,17.51,0,0,0,0,17.5H0A17.5,17.5,0,0,0,17.5,35h65A17.49,17.49,0,0,0,100,17.5h0A17.5,17.5,0,0,0,82.5,0Z"/><path d="M18.75,10.25h5l4.75,15.6H24.13l-1.78-7.58c-.38-1.49-.77-3.39-1.15-4.95h-.1c-.33,1.59-.72,3.46-1.1,4.95l-1.78,7.58H14Zm-1.34,9.1H25v3.19H17.41Z"/><path d="M29.74,10.25h4.61c4.76,0,8,2.21,8,7.73s-3.26,7.87-7.78,7.87H29.74Zm4.37,12.29c2.26,0,4-.91,4-4.56s-1.78-4.42-4-4.42h-.24v9Z"/><path d="M45.15,10.25h4.42l2.35,6.38c.29.87.53,1.83.82,2.74h.09c.29-.91.53-1.87.82-2.74l2.26-6.38h4.41v15.6H56.58V21.24a52,52,0,0,1,.53-5.57H57l-1.3,3.75-1.92,5.16H51.58l-1.91-5.16-1.25-3.75h-.1a54.66,54.66,0,0,1,.53,5.57v4.61h-3.7Z"/><path d="M63.78,10.25H67.9v15.6H63.78Z"/><path d="M71.36,10.25h4.22l3.46,7,1.49,3.5h.09a56.34,56.34,0,0,1-.52-6V10.25H84v15.6H79.81l-3.46-7-1.49-3.48h-.09a58.74,58.74,0,0,1,.53,5.95v4.51H71.36Z"/></svg>